<svg width="400" height="400" viewBox="0 0 400 400" fill="none" xmlns="http://www.w3.org/2000/svg">
<g clip-path="url(#clip0_2587_4509)">
<path d="M400 319C400 365.396 310.454 403 200 403C89.5458 403 0 365.396 0 319C0 272.604 89.5458 235 200 235C310.454 235 400 272.604 400 319Z" fill="url(#paint0_linear_2587_4509)"/>
<path d="M289.31 257.11C289.31 261.61 285.66 265.26 281.16 265.26C276.66 265.26 273.01 261.61 273.01 257.11C273.01 252.61 276.66 248.96 281.16 248.96C285.66 248.96 289.31 252.61 289.31 257.11Z" fill="url(#paint1_linear_2587_4509)"/>
<path d="M126.71 122.53C126.71 129.4 121.14 134.97 114.27 134.97C107.4 134.97 101.83 129.4 101.83 122.53C101.83 115.66 107.4 110.09 114.27 110.09C121.14 110.09 126.71 115.66 126.71 122.53Z" fill="url(#paint2_linear_2587_4509)"/>
<path d="M102.34 197.29H101.65C98.35 187.79 86.36 180.75 72.08 180.75C56.77 180.75 44.08 188.83 41.93 199.36C33.29 201.6 27.18 207.06 27.18 213.45C27.18 221.83 37.71 228.63 50.68 228.63C56.54 228.75 62.32 227.2 67.34 224.16C68.91 224.33 70.5 224.42 72.08 224.42C77.83 224.46 83.53 223.25 88.76 220.86C92.66 223.83 97.44 225.4 102.34 225.31C112.62 225.31 120.96 219.03 120.96 211.31C120.96 203.59 112.62 197.29 102.34 197.29Z" fill="url(#paint3_linear_2587_4509)"/>
<path d="M316.66 115.48C316.37 115.48 316.08 115.48 315.79 115.48C311.65 103.55 296.59 94.71 278.65 94.71C259.44 94.71 243.53 104.85 240.79 118.07C229.94 120.89 222.28 127.75 222.28 135.77C222.28 146.3 235.49 154.84 251.79 154.84C259.96 154.84 267.36 152.69 272.71 149.22C274.68 149.44 276.67 149.55 278.65 149.55C285.89 149.61 293.06 148.09 299.65 145.08C304.55 148.81 310.56 150.78 316.71 150.67C329.62 150.67 340.09 142.78 340.09 133.06C340.09 123.34 329.57 115.48 316.66 115.48Z" fill="url(#paint4_linear_2587_4509)"/>
<path d="M332.83 210.08H332.48C330.77 205.16 324.55 201.51 317.14 201.51C309.21 201.51 302.64 205.69 301.51 211.15C297.03 212.32 293.86 215.15 293.86 218.46C293.86 222.81 299.32 226.34 306.05 226.34C309.09 226.4 312.09 225.59 314.69 224.01C315.5 224.1 316.32 224.15 317.14 224.15C320.12 224.17 323.08 223.54 325.79 222.3C327.8 223.83 330.26 224.65 332.79 224.61C338.13 224.61 342.45 221.36 342.45 217.34C342.45 213.32 338.17 210.08 332.83 210.08Z" fill="url(#paint5_linear_2587_4509)"/>
<path d="M231.49 269.32C231.49 273.24 217.94 276.41 201.23 276.41C184.52 276.41 170.97 273.24 170.97 269.32C170.97 265.4 184.52 262.23 201.23 262.23C217.94 262.23 231.49 265.4 231.49 269.32Z" fill="#4350AF" fill-opacity="0.45"/>
<path d="M321.83 134.83L313.83 142.83L305.83 134.83C304.14 133.15 301.41 133.15 299.72 134.83C298.04 136.52 298.04 139.24 299.72 140.93L307.72 148.93L299.72 156.93C298.14 158.63 298.2 161.28 299.84 162.92C301.48 164.56 304.13 164.61 305.83 163.03L313.83 155.03L321.83 163.03C323.52 164.71 326.24 164.71 327.93 163.03C328.74 162.22 329.2 161.13 329.2 159.98C329.2 158.83 328.74 157.74 327.93 156.93L319.93 148.93L327.93 140.93C329.61 139.25 329.61 136.51 327.93 134.83C326.25 133.15 323.51 133.15 321.83 134.83Z" fill="url(#paint6_linear_2587_4509)"/>
<path d="M201.39 140.59C167.94 140.83 135.97 154.36 112.5 178.19L129 194.7C148.13 175.2 174.24 164.13 201.56 163.93L201.39 140.59Z" fill="url(#paint7_linear_2587_4509)"/>
<path d="M201.71 184.74C179.88 184.91 159.04 193.87 143.89 209.59L160.65 226.35C171.39 215.03 186.28 208.57 201.88 208.43L201.71 184.74Z" fill="url(#paint8_linear_2587_4509)"/>
<path d="M202 229.79C191.98 229.89 182.4 233.91 175.32 241L202.32 268L202 229.79Z" fill="url(#paint9_linear_2587_4509)"/>
<path d="M261.268 200C261.268 232.733 234.733 259.268 202 259.268C169.267 259.268 142.732 232.733 142.732 200C142.732 167.267 169.267 140.731 202 140.731C234.733 140.731 261.268 167.267 261.268 200Z" fill="url(#paint10_linear_2587_4509)" fill-opacity="0.5"/>
<path d="M202 131C163.953 131 133 161.953 133 200C133 238.047 163.953 269 202 269C240.047 269 271 238.047 271 200C271 161.953 240.047 131 202 131ZM267.375 198.289H237.366C237.189 183.362 234.776 171.778 231.282 162.814C242.858 159.887 249.402 156.172 249.844 155.915C249.923 155.857 249.996 155.792 250.061 155.72C260.809 167.329 266.966 182.458 267.375 198.274V198.289ZM203.722 136.919C208.291 138.698 219.112 144.414 226.495 160.336C219.007 161.928 211.377 162.774 203.722 162.868V136.919ZM207.466 134.813C222.588 136.072 236.795 142.562 247.648 153.169C246.038 154.023 239.848 157.076 229.921 159.547C223.153 144.523 213.378 137.711 207.466 134.813ZM200.278 136.919V162.861C192.598 162.81 184.939 162.036 177.403 160.549C184.787 144.461 195.691 138.706 200.278 136.919ZM173.977 159.786C163.515 157.254 157.698 153.998 156.327 153.191C167.183 142.569 181.408 136.068 196.545 134.813C190.59 137.725 180.746 144.599 173.977 159.786ZM200.278 166.298V198.271H170.078C170.255 183.663 172.61 172.408 176.014 163.798C184.002 165.415 192.127 166.254 200.278 166.301V166.298ZM200.278 201.718V233.695C192.145 233.778 184.045 234.686 176.097 236.405C172.653 227.766 170.255 216.446 170.078 201.718H200.278ZM200.278 237.143V263.071C195.709 261.291 184.888 255.575 177.505 239.653C184.997 238.072 192.623 237.233 200.278 237.146V237.143ZM196.545 265.183C181.419 263.928 167.205 257.438 156.352 246.827C157.962 245.973 164.152 242.92 174.079 240.449C180.847 255.474 190.622 262.289 196.545 265.183ZM203.722 263.071V237.143C211.402 237.193 219.057 237.968 226.593 239.454C219.213 255.535 208.309 261.291 203.722 263.071ZM230.023 240.203C240.485 242.736 246.302 245.992 247.673 246.798C236.82 257.416 222.599 263.917 207.466 265.176C213.41 262.271 223.254 255.398 230.023 240.211V240.203ZM203.722 233.691V201.722H233.922C233.745 216.33 231.39 227.585 227.986 236.195C219.998 234.578 211.873 233.742 203.722 233.699V233.691ZM203.722 198.267V166.298C211.855 166.211 219.955 165.303 227.903 163.584C231.343 172.223 233.742 183.543 233.922 198.267H203.722ZM153.936 155.712C153.983 155.752 154.011 155.806 154.062 155.843C154.456 156.107 160.509 160.061 172.628 163.038C169.18 171.97 166.807 183.482 166.634 198.274H136.625C137.03 182.454 143.184 167.325 153.936 155.712ZM136.625 201.722H166.634C166.811 216.649 169.22 228.236 172.719 237.201C161.164 240.127 154.598 243.839 154.16 244.096C154.08 244.154 154.004 244.219 153.939 244.291C143.187 232.679 137.03 217.546 136.625 201.722ZM250.086 244.284C250.046 244.237 250.003 244.194 249.956 244.154C249.562 243.89 243.509 239.936 231.39 236.958C234.838 228.026 237.207 216.515 237.385 201.722H267.393C266.988 217.542 260.834 232.671 250.086 244.284Z" fill="url(#paint11_linear_2587_4509)" fill-opacity="0.115"/>
<path d="M179.795 157.742L180.055 158.209L180.193 158.751L180.196 159.392L180.041 160.162L179.679 161.135L179.096 162.217L178.254 163.433L177.298 164.561L176.159 165.701L174.806 166.859L173.37 167.901L171.991 168.747L170.675 169.413L169.296 169.948L168.106 170.263L167.079 170.389L166.293 170.361L165.671 170.205L165.176 169.948L164.781 169.586L164.521 169.123L164.387 168.581L164.383 167.94L164.535 167.166L164.897 166.197L165.48 165.115L166.326 163.899L167.278 162.771L168.421 161.631L169.77 160.473L171.21 159.428L172.585 158.585L173.901 157.919L175.283 157.38L176.47 157.066L177.501 156.939L178.286 156.972L178.908 157.123L179.404 157.384L179.795 157.742Z" fill="white" fill-opacity="0.5"/>
<path d="M164.564 174.343C164.564 175.454 163.663 176.355 162.553 176.355C161.442 176.355 160.541 175.454 160.541 174.343C160.541 173.233 161.442 172.332 162.553 172.332C163.663 172.332 164.564 173.233 164.564 174.343Z" fill="white" fill-opacity="0.5"/>
<path d="M241.248 234.744C241.248 236.292 239.993 237.548 238.445 237.548C236.896 237.548 235.641 236.292 235.641 234.744C235.641 233.196 236.896 231.94 238.445 231.94C239.993 231.94 241.248 233.196 241.248 234.744Z" fill="white" fill-opacity="0.5"/>
<path d="M202 217.705C198.939 217.705 196.422 215.296 196.291 212.239L194.667 174.977C194.598 173.417 195.17 171.902 196.248 170.776C197.326 169.648 198.816 169.011 200.376 169.011H203.632C205.191 169.011 206.681 169.648 207.759 170.776C208.837 171.902 209.409 173.417 209.34 174.977L207.716 212.239C207.586 215.299 205.064 217.709 202 217.705Z" fill="white" fill-opacity="0.6"/>
<path d="M206.75 226.905C206.75 229.528 204.623 231.655 202 231.655C199.377 231.655 197.25 229.528 197.25 226.905C197.25 224.282 199.377 222.155 202 222.155C204.623 222.155 206.75 224.282 206.75 226.905Z" fill="white" fill-opacity="0.6"/>
</g>
<defs>
<linearGradient id="paint0_linear_2587_4509" x1="200" y1="231.7" x2="200" y2="399.935" gradientUnits="userSpaceOnUse">
<stop stop-color="#CCD3FF" stop-opacity="0.3"/>
<stop offset="0.48" stop-color="#FBFBFF"/>
<stop offset="1" stop-color="white"/>
</linearGradient>
<linearGradient id="paint1_linear_2587_4509" x1="279.352" y1="249.188" x2="282.955" y2="265.085" gradientUnits="userSpaceOnUse">
<stop stop-color="white"/>
<stop offset="1" stop-color="#ABB2E1"/>
</linearGradient>
<linearGradient id="paint2_linear_2587_4509" x1="118.82" y1="111.915" x2="109.035" y2="134.79" gradientUnits="userSpaceOnUse">
<stop stop-color="#FEFEFE"/>
<stop offset="1" stop-color="#AEB4E4"/>
</linearGradient>
<linearGradient id="paint3_linear_2587_4509" x1="76.8" y1="231.11" x2="67.4" y2="166.5" gradientUnits="userSpaceOnUse">
<stop stop-color="white" stop-opacity="0.2"/>
<stop offset="1" stop-color="#D5DDFF"/>
</linearGradient>
<linearGradient id="paint4_linear_2587_4509" x1="284.59" y1="157.95" x2="272.78" y2="76.81" gradientUnits="userSpaceOnUse">
<stop stop-color="white" stop-opacity="0.2"/>
<stop offset="1" stop-color="#E1E6FF"/>
</linearGradient>
<linearGradient id="paint5_linear_2587_4509" x1="319.59" y1="227.62" x2="314.72" y2="194.11" gradientUnits="userSpaceOnUse">
<stop stop-color="white" stop-opacity="0.98"/>
<stop offset="1" stop-color="#BCC3F6"/>
</linearGradient>
<linearGradient id="paint6_linear_2587_4509" x1="310.23" y1="114.81" x2="315.7" y2="166.78" gradientUnits="userSpaceOnUse">
<stop stop-color="#E0E4FF"/>
<stop offset="1" stop-color="#ADB4E8"/>
</linearGradient>
<linearGradient id="paint7_linear_2587_4509" x1="162.31" y1="126.43" x2="142.36" y2="294.92" gradientUnits="userSpaceOnUse">
<stop stop-color="white" stop-opacity="0.3"/>
<stop offset="0.03" stop-color="white" stop-opacity="0.28"/>
<stop offset="0.29" stop-color="white" stop-opacity="0.16"/>
<stop offset="0.55" stop-color="white" stop-opacity="0.07"/>
<stop offset="0.79" stop-color="white" stop-opacity="0.02"/>
<stop offset="1" stop-color="white" stop-opacity="0"/>
</linearGradient>
<linearGradient id="paint8_linear_2587_4509" x1="182.39" y1="128.81" x2="162.43" y2="297.3" gradientUnits="userSpaceOnUse">
<stop stop-color="white" stop-opacity="0.3"/>
<stop offset="0.03" stop-color="white" stop-opacity="0.28"/>
<stop offset="0.29" stop-color="white" stop-opacity="0.16"/>
<stop offset="0.55" stop-color="white" stop-opacity="0.07"/>
<stop offset="0.79" stop-color="white" stop-opacity="0.02"/>
<stop offset="1" stop-color="white" stop-opacity="0"/>
</linearGradient>
<linearGradient id="paint9_linear_2587_4509" x1="203.41" y1="131.3" x2="183.46" y2="299.79" gradientUnits="userSpaceOnUse">
<stop stop-color="white" stop-opacity="0.3"/>
<stop offset="0.03" stop-color="white" stop-opacity="0.28"/>
<stop offset="0.29" stop-color="white" stop-opacity="0.16"/>
<stop offset="0.55" stop-color="white" stop-opacity="0.07"/>
<stop offset="0.79" stop-color="white" stop-opacity="0.02"/>
<stop offset="1" stop-color="white" stop-opacity="0"/>
</linearGradient>
<linearGradient id="paint10_linear_2587_4509" x1="172.36" y1="148.661" x2="231.64" y2="251.335" gradientUnits="userSpaceOnUse">
<stop stop-color="white"/>
<stop offset="0.17" stop-color="#B4BBEB"/>
<stop offset="1" stop-color="#4E5DCA"/>
</linearGradient>
<linearGradient id="paint11_linear_2587_4509" x1="167.505" y1="140.254" x2="236.495" y2="259.742" gradientUnits="userSpaceOnUse">
<stop stop-color="#4350AF"/>
<stop offset="0.29" stop-color="#4350AF"/>
<stop offset="0.64" stop-color="#4350AF"/>
<stop offset="1" stop-color="#0D112F"/>
</linearGradient>
<clipPath id="clip0_2587_4509">
<rect width="400" height="400" fill="white"/>
</clipPath>
</defs>
</svg>
